<svg width="210" height="770" xmlns="http://www.w3.org/2000/svg">

 <g>
  <title>Layer 1</title>
  <path id="svg_1" fill="#fcfcfc" d="m47.19,29.24l-2.79,0l0,-5.39c0,-4.27 -4.06,-9.04 -9.49,-9.05c-5.43,0 -9.49,4.79 -9.49,9.05l0,5.39l-2.61,0c-1.27,0 -2.31,1.04 -2.31,2.31l0,17.33c0,1.27 1.04,2.31 2.31,2.31l24.38,0c1.27,0 2.31,-1.04 2.31,-2.31l0,-17.33c0,-1.27 -1.04,-2.31 -2.31,-2.31zm-18.28,-5.39c0,-2.26 2.34,-5.56 6,-5.57c3.67,0 6.01,3.3 6.01,5.57l0,5.39l-12,0l0,-5.39l-0.01,0z"/>
  <g id="svg_2" fill="#fff">
   <circle id="svg_3" r="2.25" cy="460.65" cx="19.81"/>
   <circle id="svg_4" r="2.25" cy="433.89" cx="26.02"/>
   <path id="svg_5" d="m51.58,455.81c-0.59,-0.59 -1.23,-1.1 -1.9,-1.53s-24.11,-15.33 -24.11,-15.33l6.54,12.33l-17.93,-12.01l19.52,30.69c0.46,0.73 1,1.43 1.64,2.08c4.48,4.48 11.75,4.48 16.23,0s4.48,-11.75 0,-16.23l0.01,0zm-3.12,13.1c-2.76,2.76 -7.22,2.76 -9.98,0s-2.76,-7.22 0,-9.98s7.22,-2.76 9.98,0s2.76,7.22 0,9.98z"/>
   <path id="svg_6" d="m48.5,245.75c-1.8,-1.84 -1.36,-4.24 -0.98,-5.44c0.1,-0.3 -0.18,-0.6 -0.49,-0.52c-1.22,0.29 -3.63,0.75 -4.91,-0.98c-1.6,-2.16 -0.58,-4.2 0.16,-5.19c0.19,-0.25 0.05,-0.6 -0.26,-0.65c-1.03,-0.18 -2.88,-0.66 -3.85,-1.93c-1.27,-1.65 -0.75,-3.49 -0.31,-4.79c-1.99,-0.3 -4.08,-0.29 -6.23,0.1c-8.34,1.51 -14.78,8.57 -15.48,17.02c-0.94,11.21 7.88,20.6 18.89,20.6c9.99,0 18.17,-7.73 18.9,-17.53c-1.38,0.38 -3.97,0.81 -5.43,-0.68l-0.01,-0.01zm-13.47,5.74c-3.58,0 -6.49,-2.91 -6.49,-6.49s2.91,-6.49 6.49,-6.49s6.49,2.91 6.49,6.49s-2.91,6.49 -6.49,6.49z"/>
   <path id="svg_7" d="m45.91,220.19c-1.17,-0.29 -2.04,-0.28 -2.29,0.23c-0.15,0.3 -0.24,4.31 -0.21,4.62s1.05,0.98 1.38,1.08s0.63,0.14 0.77,-0.13s1.93,-3.98 2.1,-4.35s-0.79,-1.2 -1.76,-1.44l0.01,-0.01z"/>
   <path id="svg_8" d="m51.21,226.62c-1.6,0.4 -2.82,1.05 -3.34,2.7c-0.42,1.34 -0.16,3.94 1.15,4.3c0.93,0.25 3.01,-0.24 3.27,-0.79s0.98,-6.72 -1.08,-6.21z"/>
   <path id="svg_9" d="m193.68,176.92s2.05,-9.42 0.3,-13.65c-1.75,-4.22 -7.57,-8.83 -7.57,-8.83l-6.18,2.17l2.61,4.69l-26.77,4.68c-0.42,0.07 -0.7,0.47 -0.63,0.9l0.45,2.55c0.07,0.42 0.47,0.7 0.89,0.63l15.9,-2.67l-10.73,24.33c-0.39,0.88 0.01,1.92 0.89,2.31s1.92,-0.01 2.31,-0.9l9.81,-22.26l9.91,22.47c0.39,0.88 1.42,1.29 2.31,0.9c0.88,-0.39 1.28,-1.42 0.89,-2.31l-11.14,-25.26l8.51,-1.43l8.24,11.67l0,0.01z"/>
   <path id="svg_10" d="m187.05,311.66c1.89,-0.04 3.9,-0.14 4.59,-0.14c2.39,0 2.47,-3.98 0.08,-3.98l-25.78,0l-11.56,21.73l42.25,0l-9.58,-17.61z"/>
   <path id="svg_11" d="m178.48,294.41c-0.17,-0.26 -1.36,0.4 -2.24,0.3c-0.41,-0.05 -1.37,-0.28 -1.84,-0.42s-1.89,-0.29 -2.31,0.08c-0.14,0.12 -1.55,3.06 -2.27,4.69c-2.55,0.02 -7.28,0 -8.06,0c-2.39,0 -2.47,3.98 -0.08,3.98l20.46,0l-3.67,-8.63l0.01,0z"/>
   <circle id="svg_12" r="2.25" cy="315" cx="35"/>
   <path id="svg_13" d="m49.41,321.33c-1.91,3.57 -5.95,7.03 -6.12,7.17c-0.43,0.37 -0.96,0.55 -1.49,0.55c-0.65,0 -1.3,-0.27 -1.75,-0.81c-0.82,-0.97 -0.71,-2.42 0.26,-3.25c0.04,-0.03 3.55,-3.05 5.05,-5.84c0.99,-1.84 3.58,-9.91 5.63,-16.61c-3.71,-4.75 -9.48,-7.8 -15.97,-7.8c-11.19,0 -20.26,9.07 -20.26,20.26s9.07,20.26 20.26,20.26s20.26,-9.07 20.26,-20.26c0,-2.41 -0.42,-4.72 -1.2,-6.87c-1.64,5.21 -3.64,11.29 -4.66,13.2l-0.01,0zm-22.24,-6.33c0,-4.32 3.5,-7.83 7.83,-7.83s7.83,3.51 7.83,7.83s-3.51,7.83 -7.83,7.83s-7.83,-3.5 -7.83,-7.83z"/>
   <path id="svg_14" d="m128.79,307.62c-0.72,-1.84 -11.67,0.73 -24.46,5.74s-22.57,10.57 -21.84,12.41c0.35,0.9 3.16,0.74 7.43,-0.24c0,0 -0.01,0.01 -0.02,0.02c4.77,6.81 13.72,9.76 21.8,6.59s12.64,-11.41 11.51,-19.65c0,0 -0.02,0 -0.03,0c3.8,-2.18 5.97,-3.98 5.62,-4.88l-0.01,0.01z"/>
   <path id="svg_15" d="m102.65,309.08c6.1,-2.39 12,-4.32 16.73,-5.47c-4.89,-6.2 -13.4,-8.78 -21.13,-5.75s-12.21,10.71 -11.59,18.58c4.25,-2.36 9.89,-4.96 15.99,-7.35l0,-0.01z"/>
   <path id="svg_16" d="m187,237l-12,0l-12,0l-3,9.5l15,0l15,0l-3,-9.5z"/>
   <path id="svg_17" d="m193,251l-18,0l-18,0l-3,10l21,0l21,0l-3,-10z"/>
   <path id="svg_18" d="m167,223.5l0,9l4.75,0l0,-4.5l6.5,0l0,4.5l4.75,0l0,-9l-16,0z"/>
   <path id="svg_19" d="m31.62,171.62l2.56,-11.86c0.19,-0.88 1.44,-0.88 1.63,0l2.56,11.86l11.84,2.56c0.88,0.19 0.88,1.44 0,1.63l-11.84,2.56l-2.56,11.86c-0.19,0.88 -1.44,0.88 -1.63,0l-2.56,-11.86l-11.84,-2.56c-0.88,-0.19 -0.88,-1.44 0,-1.63l11.84,-2.56z"/>
   <circle id="svg_20" r="2.25" cy="165.88" cx="43.65"/>
   <circle id="svg_21" r="2.25" cy="159.9" cx="50.4"/>
   <circle id="svg_22" r="2.25" cy="189.38" cx="19.08"/>
   <circle id="svg_23" r="2.25" cy="183.4" cx="25.83"/>
   <circle id="svg_24" r="2.25" cy="183.4" cx="43.65"/>
   <circle id="svg_25" r="2.25" cy="189.38" cx="50.4"/>
   <circle id="svg_26" r="2.25" cy="165.88" cx="25.83"/>
   <circle id="svg_27" r="2.25" cy="159.9" cx="19.08"/>
   <path id="svg_28" d="m86,172.5l19,23l19,-23l-38,0z"/>
   <path id="svg_29" d="m98.25,158l6.75,10l6.75,-10l-13.5,0z"/>
   <path id="svg_30" d="m124,168l-6.75,-10l-6.75,10l13.5,0z"/>
   <path id="svg_31" d="m99.5,168l-6.75,-10l-6.75,10l13.5,0z"/>
   <path id="svg_32" d="m174.92,433.89l-20.84,35.33l41.83,0l-21,-35.33l0.01,0zm0.08,23.88c-2.33,0 -4.22,-1.89 -4.22,-4.22s1.89,-4.22 4.22,-4.22s4.22,1.89 4.22,4.22s-1.89,4.22 -4.22,4.22z"/>
   <path id="svg_33" d="m89.24,250.25c-2.4,2.4 -4.5,8.4 -4.5,8.4s6,-2.1 8.4,-4.5l-3.9,-3.9z"/>
   <path id="svg_34" d="m95.97,256.98c-2.4,2.4 -4.5,8.4 -4.5,8.4s6,-2.1 8.4,-4.5l-3.9,-3.9z"/>
   <path id="svg_35" d="m116.11,247.37l6.67,-11.07c1.63,-2.7 1.38,-8.12 0.26,-9.23s-6.52,-1.36 -9.23,0.26l-11.07,6.67l-12.18,-0.23l-5.71,5.71l12.89,12.89l12.89,12.89l5.71,-5.71l-0.23,-12.18zm-10.82,-10.82l11.07,-6.67l3.87,3.87l-6.69,11.05l-8.25,-8.25z"/>
   <path id="svg_36" d="m122.1,378.64c-2.59,-4.15 -7.97,-8.13 -7.97,-8.13s0.59,-2.22 0.44,-2.88c-0.09,-0.36 -1.13,-0.93 -1.13,-0.93s-1.08,-0.49 -1.42,-0.34c-0.63,0.28 -2.03,2.09 -2.03,2.09s-6.42,-1.88 -11.29,-1.42c-4.88,0.45 -10.79,3.01 -10.79,3.01s-1.59,3.22 -1.79,3.61c1.28,1.53 5.55,4.32 6.24,4.74c0.78,-1.1 2.09,-2.66 2.52,-3.02c0.72,-0.6 1.31,-0.65 2,-0.2c0.9,0.59 -0.13,2.8 -1.44,5.11c1.94,1.27 5.75,3.25 7.03,3.89c1.1,-2.22 2.78,-4.64 4.26,-3.91s0.56,3.54 -0.53,5.76c1.28,0.63 5.17,2.46 7.35,3.24c1.05,-2.44 2.19,-4.6 3.19,-4.24c0.78,0.28 1.1,0.78 1.05,1.71c-0.03,0.56 -0.47,2.55 -0.88,3.84c0.76,0.3 5.56,2.01 7.55,2.1c0.2,-0.4 1.79,-3.61 1.79,-3.61s-1.55,-6.26 -4.14,-10.41l-0.01,-0.01z"/>
   <path id="svg_37" d="m92.37075,404.12516l7.32874,-14.78308l4.03175,1.99875l-7.32874,14.78308l-4.03175,-1.99875z"/>
   <path id="svg_38" d="m187.78,376.87l-6.14,4.09l-6.14,-4.09l-6.14,4.09l0,-9.21l-6.14,-8.19l-6.14,8.19l0,30.7l13.81,0l0,-6.9c0,-2.54 2.06,-4.6 4.6,-4.6s4.6,2.06 4.6,4.6l0,6.9l13.81,0l0,-21.49l-6.14,-4.09l0.02,0z"/>
   <path id="svg_39" d="m58.32,396.84c-1.36,-1.94 -3.77,-4.93 -8.05,-8.46c-4.58,-3.78 -8.07,-5.17 -8.07,-5.17s2.01,-3.72 2.76,-5.12c0.76,-1.4 1.93,-3.95 1.42,-4.46s-3.05,0.66 -4.46,1.42c-1.4,0.75 -5.12,2.76 -5.12,2.76s-1.39,-3.49 -5.17,-8.07c-3.53,-4.28 -6.52,-6.69 -8.47,-8.05c-1.01,-0.71 -1.63,1.03 -2.12,3.95c-0.95,5.65 -1.51,12.75 4.61,22.96c0,0 -6.55,4.59 -8.19,5.64c-1,0.64 -0.81,1.43 -0.44,1.85c0.38,0.43 3.03,3.18 3.39,3.52c0.33,0.37 3.09,3.02 3.52,3.39c0.42,0.37 1.21,0.56 1.85,-0.44c1.05,-1.65 5.64,-8.19 5.64,-8.19c10.21,6.11 17.31,5.56 22.96,4.61c2.91,-0.49 4.65,-1.11 3.95,-2.12l-0.01,-0.02z"/>
   <path id="svg_40" d="m108.29,449.94c-9.04,-3.6 -17.12,-1.7 -26.01,2.5c3.57,9.16 8.13,16.09 17.18,19.69c9.04,3.6 17.12,1.7 26.01,-2.5c-3.57,-9.16 -8.14,-16.09 -17.18,-19.69zm2.14,13.71c-1.44,3.62 -5.54,5.39 -9.16,3.94c-3.62,-1.44 -5.39,-5.54 -3.94,-9.16c1.44,-3.62 5.54,-5.39 9.16,-3.94c3.62,1.44 5.39,5.54 3.94,9.16z"/>
   <path id="svg_41" d="m126,453.26c0.24,0.53 0.22,0.92 -0.19,1.16c-0.63,0.37 -0.54,0.31 -0.97,0.55c-0.35,0.2 -0.66,0.09 -1.05,-0.49c-4.28,-6.24 -7.45,-9.17 -13.95,-11.7c-6.46,-2.51 -11.59,-2.25 -17.21,-1.37c-3.23,0.51 -3.44,-0.35 -2.62,-1.29s2.71,-1.09 2.5,-2.05c-0.22,-1.01 -2.94,0.6 -3.94,-0.1c-1.18,-0.83 1.5,-2.7 5.61,-3.57c9.65,-2.04 24.06,1.68 31.82,18.85l0,0.01z"/>
  </g>
  <path id="svg_42" fill="#fcfcfc" d="m155.77,113.6l38.46,0c-6.92,-3.31 -11.83,-8.45 -11.83,-9.37l7.28,0c-5.61,-3.12 -10.31,-8.08 -10.31,-9.05l7.17,0c-7.57,-4.18 -11.08,-11.98 -11.53,-12.25c-0.45,0.27 -3.96,8.07 -11.53,12.25l7.17,0c0,0.96 -4.7,5.93 -10.31,9.05l7.28,0c0,0.92 -4.92,6.06 -11.83,9.37l-0.02,0z"/>
  <path id="svg_43" fill="#fcfcfc" d="m172.28,118.1l5.44,0l0,6.46l-5.44,0l0,-6.46z"/>
  <path id="svg_44" fill="#fff" d="m119.71,111.97c-3.61,3.07 -7.83,5.1 -11.61,5.85l0,-19.95l10.71,0c0.97,0 1.75,-0.78 1.75,-1.75s-0.78,-1.75 -1.75,-1.75l-10.32,0c1.67,-1.12 2.76,-3.03 2.76,-5.19c0,-3.45 -2.8,-6.25 -6.25,-6.25s-6.25,2.8 -6.25,6.25c0,2.16 1.1,4.06 2.76,5.19l-10.32,0c-0.97,0 -1.75,0.78 -1.75,1.75s0.78,1.75 1.75,1.75l10.71,0l0,19.95c-3.78,-0.76 -8,-2.78 -11.61,-5.85l-5.32,1.4c5.32,7.08 14.58,11.68 20.03,12c5.44,-0.33 14.7,-4.93 20.03,-12l-5.32,-1.4zm-14.72,-25.53c1.52,0 2.75,1.22 2.76,2.74c0,1.52 -1.23,2.75 -2.74,2.76c-1.52,0 -2.75,-1.22 -2.76,-2.74c0,-1.52 1.22,-2.75 2.74,-2.76z"/>
  <path id="svg_45" fill="#fcfcfc" d="m32.92,112.22c-3.19,-3.74 -3.2,-8.43 -1.45,-11.1c2.59,-3.96 4.38,-6.05 4.38,-6.05s4.28,2.52 4.43,8.48c0.06,2.28 -0.3,5.78 -3.2,8.67c3.36,-0.6 6.69,-2.55 8.53,-5.39c2.66,-4.11 2.98,-9.81 0.48,-14.12c-4.33,-7.47 -13.17,-11.29 -13.17,-11.29s0.61,5.59 -7.67,13.22c-3.73,3.43 -3.36,9.32 -0.08,12.72c2.02,2.1 4.62,3.91 7.76,4.87l-0.01,-0.01z"/>
  <path id="svg_46" fill="#fcfcfc" d="m45.09,116.81l-20.18,0c-1.21,0 -2.19,0.93 -2.19,2.07l0,6.49l24.56,0l0,-6.49c0,-1.15 -0.98,-2.07 -2.19,-2.07z"/>
  <path id="svg_47" fill="#fff" d="m56.95,518.37s-5.09,0.87 -10.15,4.4c0.05,0.72 0.09,1.45 0.09,2.2c0,8.65 -3.47,15.01 -6.07,18.57c3.68,-0.51 8.5,-2.15 12.26,-7.09c5.66,-7.44 3.87,-18.08 3.87,-18.08z"/>
  <path id="svg_48" fill="#fff" d="m25.48,513.01c-2.95,-2.79 -5.39,-3.91 -5.39,-3.91s-0.95,2.45 -1.25,6.31c1.52,0.59 3.27,1.39 5.08,2.47c0.41,-1.77 0.95,-3.4 1.56,-4.87z"/>
  <path id="svg_49" fill="#fff" d="m35,506.46s-7.39,6.82 -7.39,18.5s7.39,18.5 7.39,18.5s7.39,-6.82 7.39,-18.5s-7.39,-18.5 -7.39,-18.5z"/>
  <path id="svg_50" fill="#fff" d="m51.16,515.42c-0.3,-3.86 -1.25,-6.31 -1.25,-6.31s-2.44,1.12 -5.39,3.9c0.61,1.48 1.15,3.1 1.56,4.87c1.81,-1.08 3.55,-1.88 5.08,-2.47l0,0.01z"/>
  <path id="svg_51" fill="#fff" d="m13.05,518.37s5.09,0.87 10.15,4.4c-0.05,0.72 -0.09,1.45 -0.09,2.2c0,8.65 3.47,15.01 6.07,18.57c-3.68,-0.51 -8.5,-2.15 -12.26,-7.09c-5.66,-7.44 -3.87,-18.08 -3.87,-18.08z"/>
  <path id="svg_52" fill="#fff" d="m86,514.5l1,4l0,25.5l11.26,0l0,-18.75c0,-3.72 3.02,-6.74 6.74,-6.74s6.74,3.02 6.74,6.74l0,18.75l11.26,0l0,-25.5l1,-4l-38,0z"/>
  <path id="svg_53" fill="#fff" d="m121,506l-9.82,0l-6.18,-4l-6.18,4l-9.82,0l-1,4l34,0l-1,-4z"/>
  <path id="svg_54" fill="#fff" d="m193.97,513.77c-2.74,-2.04 -6.34,-2.55 -9.82,-2.84c0.3,-1.43 0.85,-3.46 1.31,-4.65c0.94,-2.43 -0.61,-1.91 -1.54,-0.83c-0.6,0.71 -2.21,3.01 -2.91,4.32c-0.57,1.06 -1.88,0.69 -1.74,-0.35c0.28,-2.05 1.02,-4.43 2.12,-6.98c0.72,-1.66 -0.71,-1.53 -1.43,-0.77c-1.67,1.77 -4.08,6.08 -4.68,7.28c-0.65,1.29 -2.1,0.72 -1.91,-0.4c0.42,-2.55 2.62,-7.76 2.87,-8.37c0.38,-0.93 -0.51,-1.64 -1.78,-0.42c-0.66,0.64 -3.61,4.08 -5.93,9.1c-3.74,-0.65 -7.51,-0.75 -11.02,1.54c-6.26,4.09 -6.28,13.27 -2,18c3.14,3.47 4.88,4.96 6.19,9.84c1.55,5.8 5.26,9.94 11.12,10.6c5.31,0.59 9.18,-3.3 11.57,-7.58c2.06,-3.69 4.63,-6.02 9.94,-9.78c6.12,-4.33 5.07,-13.65 -0.35,-17.69l-0.01,-0.02zm-30.33,12.83c-3.42,-0.41 -5.86,-3.51 -5.45,-6.93s3.51,-5.86 6.93,-5.45s5.86,3.51 5.45,6.93s-3.51,5.86 -6.93,5.45zm12.16,6.98c-0.17,0.85 -1.24,1.53 -3.81,1.02c-2.5,-0.5 -2.68,-1.49 -2.44,-2.49c0.26,-1.1 3.08,-5.22 4.12,-5.02c1.09,0.21 2.4,5.14 2.14,6.5l-0.01,-0.01zm15.83,-9.89c-0.42,3.54 -3.64,6.07 -7.18,5.65s-6.07,-3.64 -5.65,-7.18s3.64,-6.07 7.18,-5.65s6.07,3.64 5.65,7.18z"/>
  <path id="svg_55" fill="#fff" d="m24.51,582.76l-0.24,-9.01c-0.02,-0.69 -0.58,-1.25 -1.29,-1.27c-0.7,0.02 -1.27,0.58 -1.29,1.27l-0.24,9.01l-5.22,5.22l0,24.54l13.5,0l0,-24.54l-5.22,-5.22z"/>
  <path id="svg_56" fill="#fff" d="m47.91,572.48l-13.68,0s0,40.04 0,40.04l19.54,0s0,-21.52 0,-21.52l-5.86,-5.86s0,-12.66 0,-12.66zm-3.42,10.13l-6.84,0l0,-6.84l6.84,0l0,6.84z"/>
  <path id="svg_57" fill="#fff" d="m130.46,591.04s-8.45,-2.14 -17.42,-0.64c-7.45,1.25 -15.17,2.5 -17.79,2.93c-3.69,-3.92 -10.63,-11.11 -11.2,-11.75c-0.87,-0.96 -2.06,-0.69 -1.8,0.56l4.05,16.5c-1.22,0.26 -4.09,1.1 -5.44,3.49c2.3,1.54 5.28,1.02 6.47,0.72l0.88,3.57l8.14,-0.98l-1.73,6.87c0.13,0.44 0.38,0.71 0.57,0.66l10.94,-2.38c0.46,-0.1 0.81,-0.47 0.88,-0.93l2.87,-6.35s4.89,-1.12 10.45,-3.05c8.21,-2.85 10.81,-6.39 10.81,-6.39l-0.68,-2.84l0,0.01z"/>
  <path id="svg_58" fill="#fff" d="m104.44,581.58c-4.07,0 -7.21,3.12 -7.92,6.98l15.41,-2.53c-1.42,-2.54 -4.37,-4.45 -7.48,-4.45l-0.01,0z"/>
  <path id="svg_59" fill="#fff" d="m173.91,573.73l-22.42,33.54l34.69,0l-12.27,-33.54z"/>
  <path id="svg_60" fill="#fff" d="m180.85,579.38l10.14,27.89l7.52,0l-17.66,-27.89z"/>
  <path id="svg_61" fill="#fff" d="m51.39,655.73c1.77,-3.71 1.13,-8.29 -1.95,-11.37c-3.07,-3.08 -7.65,-3.72 -11.37,-1.95c0.64,3.18 2.19,6.21 4.65,8.67s5.49,4.01 8.67,4.65z"/>
  <path id="svg_62" fill="#fff" d="m48.87,659.02c-3.42,-0.55 -6.7,-2.12 -9.33,-4.76c-2.63,-2.63 -4.21,-5.92 -4.76,-9.33c-3.37,3.93 -3.21,9.85 0.51,13.57s9.64,3.89 13.57,0.51l0.01,0.01z"/>
  <path id="svg_63" fill="#fff" d="m52.91,684.15c-1.5,-6.44 -7.38,-8.8 -12.2,-8.27c-3.58,0.39 -5.96,2.02 -8.27,3.6c-2.47,1.69 -4.8,3.28 -8.72,3.28c-1.8,0 -3.42,-0.98 -4.03,-2.45c-0.69,-1.66 0.03,-3.68 2.03,-5.68l0.06,-0.06c0.43,0.37 0.86,0.71 1.15,0.89c0.62,0.38 1.42,0.32 1.99,-0.13l12.63,-10.24c-1.98,-0.7 -3.85,-1.82 -5.43,-3.4s-2.71,-3.45 -3.4,-5.43l-10.24,12.63c-0.45,0.57 -0.52,1.37 -0.13,1.99c0.18,0.29 0.52,0.72 0.89,1.15l-0.06,0.06c-3.05,3.05 -4.08,6.55 -2.81,9.6c1.16,2.79 4.11,4.67 7.35,4.67c5.04,0 8.08,-2.08 10.75,-3.91c2.12,-1.45 3.94,-2.7 6.63,-2.99c2.35,-0.26 7.14,0.56 8.3,5.51c0.19,0.83 0.93,1.39 1.75,1.39c0.14,0 0.27,-0.02 0.41,-0.05c0.97,-0.23 1.57,-1.19 1.34,-2.16l0.01,0z"/>
  <path id="svg_64" fill="#fff" d="m184.44,657.15l0,-8.81c0,-2.97 -4.04,-7.19 -9.44,-7.19s-9.44,4.22 -9.44,7.19l0,8.81l18.87,0l0.01,0z"/>
  <path id="svg_65" fill="#fff" d="m178.14,681.91l-6.27,0c-2.56,4.89 3.14,8.35 3.14,8.35s5.7,-3.46 3.14,-8.35l-0.01,0z"/>
  <path id="svg_66" fill="#fff" d="m189.15,661.65l-28.29,0c-4.14,2.03 -7.75,7.47 -9.54,12.01l9.85,0l3.01,3.75l21.66,0l3.01,-3.75l9.85,0c-1.79,-4.54 -5.4,-9.98 -9.54,-12.01l-0.01,0z"/>
  <path id="svg_67" fill="#fff" d="m125.03,644.71l-3.13,0l-0.77,6.93l-32.26,0l-0.77,-6.93l-3.13,0l-1.08,21.12c-0.06,1.08 0.55,2.08 1.52,2.55l19.59,9.97l19.59,-9.97c0.98,-0.46 1.58,-1.47 1.52,-2.55l-1.08,-21.12zm-5.13,18.02l-14.9,7.08l-14.9,-7.08l-0.6,-5.45l31.01,0l-0.6,5.45l-0.01,0z"/>
  <path id="svg_68" fill="#fff" d="m89.65,675.73c0.72,4.62 3.62,8.61 7.78,10.74l7.41,3.78l7.41,-3.78c4.17,-2.13 7.06,-6.12 7.78,-10.74l-15.19,7.85l-15.19,-7.85z"/>
  <path id="svg_69" fill="#fff" d="m24.51,722.56674l-0.24,-9.01c-0.02,-0.69 -0.58,-1.25 -1.29,-1.27c-0.7,0.02 -1.27,0.58 -1.29,1.27l-0.24,9.01l-5.22,5.22l0,24.54l13.5,0l0,-24.54l-5.22,-5.22z"/>
  <path id="svg_70" fill="#fff" d="m47.91,712.28674l-13.68,0s0,40.04 0,40.04l19.54,0s0,-21.52 0,-21.52l-5.86,-5.86s0,-12.66 0,-12.66zm-3.42,10.13l-6.84,0l0,-6.84l6.84,0l0,6.84z"/>
  <path id="svg_71" fill="#fff" d="m130.46,730.84674s-8.45,-2.14 -17.42,-0.64c-7.45,1.25 -15.17,2.5 -17.79,2.93c-3.69,-3.92 -10.63,-11.11 -11.2,-11.75c-0.87,-0.96 -2.06,-0.69 -1.8,0.56l4.05,16.5c-1.22,0.26 -4.09,1.1 -5.44,3.49c2.3,1.54 5.28,1.02 6.47,0.72l0.88,3.57l8.14,-0.98l-1.73,6.87c0.13,0.44 0.38,0.71 0.57,0.66l10.94,-2.38c0.46,-0.1 0.81,-0.47 0.88,-0.93l2.87,-6.35s4.89,-1.12 10.45,-3.05c8.21,-2.85 10.81,-6.39 10.81,-6.39l-0.68,-2.84l0,0.01z"/>
  <path id="svg_72" fill="#fff" d="m104.44,721.38674c-4.07,0 -7.21,3.12 -7.92,6.98l15.41,-2.53c-1.42,-2.54 -4.37,-4.45 -7.48,-4.45l-0.01,0z"/>
  <path id="svg_73" fill="#fff" d="m173.91,713.53674l-22.42,33.54l34.69,0l-12.27,-33.54z"/>
  <path id="svg_74" fill="#fff" d="m180.85,719.18674l10.14,27.89l7.52,0l-17.66,-27.89z"/>
 </g>
</svg>